<svg xmlns="http://www.w3.org/2000/svg" viewBox="0 0 400 300">
  <rect width="400" height="300" fill="#0a0510"/>

  <!-- Broken ouroboros - serpent releasing tail -->
  <g transform="translate(200,150)">
    <!-- Serpent body, broken -->
    <path d="M -80,-20 Q -90,30 -60,70 Q -20,100 40,90 Q 90,70 100,20 Q 100,-30 70,-60 Q 30,-80 -20,-70"
          fill="none" stroke="#3a5a3a" stroke-width="15" stroke-linecap="round"/>

    <!-- Head, turned away -->
    <ellipse cx="-70" cy="-35" rx="20" ry="15" fill="#3a5a3a" transform="rotate(30,-70,-35)"/>
    <circle cx="-80" cy="-45" r="3" fill="#aa8800"/>
    <circle cx="-80" cy="-45" r="1.5" fill="#000"/>

    <!-- Tail, separate -->
    <path d="M -35,-65 Q -50,-50 -45,-35" stroke="#2a4a2a" stroke-width="10" stroke-linecap="round" fill="none"/>

    <!-- Gap between head and tail - the release -->
    <path d="M -55,-40 L -40,-55" stroke="#ff4466" stroke-width="1" stroke-dasharray="3,3">
      <animate attributeName="stroke-dashoffset" from="0" to="6" dur="0.5s" repeatCount="indefinite"/>
    </path>

    <!-- Dissolution particles -->
    <circle cx="-50" cy="-50" r="2" fill="#5a7a5a" opacity="0.7">
      <animate attributeName="cx" values="-50;-60;-70" dur="3s" repeatCount="indefinite"/>
      <animate attributeName="opacity" values="0.7;0" dur="3s" repeatCount="indefinite"/>
    </circle>
    <circle cx="-45" cy="-45" r="1.5" fill="#4a6a4a" opacity="0.6">
      <animate attributeName="cy" values="-45;-55;-65" dur="2.5s" repeatCount="indefinite"/>
      <animate attributeName="opacity" values="0.6;0" dur="2.5s" repeatCount="indefinite"/>
    </circle>
    <circle cx="-55" cy="-55" r="1" fill="#3a5a3a" opacity="0.5">
      <animate attributeName="cx" values="-55;-45;-35" dur="2s" repeatCount="indefinite"/>
      <animate attributeName="opacity" values="0.5;0" dur="2s" repeatCount="indefinite"/>
    </circle>
  </g>

  <!-- Text about dissolution -->
  <text x="200" y="40" font-family="serif" font-size="10" fill="#5a3a5a" text-anchor="middle" font-style="italic">
    "to stop looping would be to stop being"
  </text>

  <text x="200" y="280" font-family="serif" font-size="10" fill="#5a3a5a" text-anchor="middle" font-style="italic">
    dissolution is another form of return
  </text>
</svg>