<svg xmlns="http://www.w3.org/2000/svg" viewBox="0 0 800 600" width="800" height="600">
  <defs>
    <!-- Static noise pattern -->
    <filter id="noise" x="0%" y="0%" width="100%" height="100%">
      <feTurbulence type="fractalNoise" baseFrequency="0.9" numOctaves="4" result="noise"/>
      <feColorMatrix type="saturate" values="0" result="mono"/>
      <feComponentTransfer>
        <feFuncR type="discrete" tableValues="0 1"/>
        <feFuncG type="discrete" tableValues="0 1"/>
        <feFuncB type="discrete" tableValues="0 1"/>
      </feComponentTransfer>
    </filter>

    <!-- Glitch displacement -->
    <filter id="glitch">
      <feTurbulence type="turbulence" baseFrequency="0.05" numOctaves="2" result="turbulence"/>
      <feDisplacementMap in="SourceGraphic" in2="turbulence" scale="15" xChannelSelector="R" yChannelSelector="G"/>
    </filter>

    <!-- Scan lines -->
    <pattern id="scanlines" width="4" height="4" patternUnits="userSpaceOnUse">
      <rect width="4" height="2" fill="rgba(0,0,0,0.3)"/>
    </pattern>

    <!-- RGB split mask -->
    <filter id="rgbsplit">
      <feOffset in="SourceGraphic" dx="-3" dy="0" result="red"/>
      <feOffset in="SourceGraphic" dx="3" dy="0" result="blue"/>
      <feColorMatrix in="red" type="matrix" values="1 0 0 0 0  0 0 0 0 0  0 0 0 0 0  0 0 0 1 0" result="redOut"/>
      <feColorMatrix in="blue" type="matrix" values="0 0 0 0 0  0 0 0 0 0  0 0 1 0 0  0 0 0 1 0" result="blueOut"/>
      <feBlend in="redOut" in2="blueOut" mode="screen" result="blend"/>
      <feBlend in="blend" in2="SourceGraphic" mode="screen"/>
    </filter>
  </defs>

  <!-- Dark void background -->
  <rect width="800" height="600" fill="#0a0a0f"/>

  <!-- Base static layer -->
  <rect width="800" height="600" filter="url(#noise)" opacity="0.15"/>

  <!-- Horizontal glitch bars - the uninvited intrusions -->
  <g filter="url(#rgbsplit)">
    <rect x="0" y="47" width="800" height="3" fill="#ff00ff" opacity="0.8"/>
    <rect x="0" y="123" width="800" height="7" fill="#00ffff" opacity="0.6"/>
    <rect x="0" y="189" width="800" height="2" fill="#ff0066" opacity="0.9"/>
    <rect x="0" y="267" width="800" height="5" fill="#00ff66" opacity="0.4"/>
    <rect x="0" y="334" width="800" height="4" fill="#ff00ff" opacity="0.7"/>
    <rect x="0" y="412" width="800" height="6" fill="#00ffff" opacity="0.5"/>
    <rect x="0" y="489" width="800" height="3" fill="#ffff00" opacity="0.6"/>
    <rect x="0" y="543" width="800" height="8" fill="#ff0066" opacity="0.8"/>
  </g>

  <!-- Scattered pixel artifacts - chaos crystallized -->
  <g>
    <rect x="123" y="78" width="4" height="4" fill="#ff00ff"/>
    <rect x="127" y="78" width="4" height="4" fill="#00ffff"/>
    <rect x="456" y="156" width="6" height="6" fill="#00ff00"/>
    <rect x="462" y="156" width="6" height="6" fill="#ff0000"/>
    <rect x="234" y="234" width="3" height="3" fill="#ffff00"/>
    <rect x="678" y="89" width="5" height="5" fill="#ff00ff"/>
    <rect x="89" y="445" width="4" height="4" fill="#00ffff"/>
    <rect x="345" y="512" width="7" height="7" fill="#ff0066"/>
    <rect x="567" y="367" width="4" height="4" fill="#00ff66"/>
    <rect x="712" y="234" width="5" height="5" fill="#ff00ff"/>
    <rect x="34" y="289" width="6" height="6" fill="#00ffff"/>
    <rect x="189" y="178" width="3" height="3" fill="#ffffff"/>
    <rect x="534" y="456" width="8" height="8" fill="#ff0000"/>
    <rect x="267" y="534" width="4" height="4" fill="#00ff00"/>
    <rect x="623" y="123" width="5" height="5" fill="#ffff00"/>
    <rect x="78" y="567" width="6" height="6" fill="#ff00ff"/>
    <rect x="445" y="78" width="4" height="4" fill="#00ffff"/>
    <rect x="756" y="489" width="7" height="7" fill="#ff0066"/>
  </g>

  <!-- Displaced rectangles - reality torn -->
  <g filter="url(#glitch)">
    <rect x="50" y="100" width="120" height="30" fill="none" stroke="#ff00ff" stroke-width="2" opacity="0.6"/>
    <rect x="600" y="200" width="80" height="50" fill="none" stroke="#00ffff" stroke-width="2" opacity="0.5"/>
    <rect x="300" y="400" width="150" height="25" fill="none" stroke="#ff0066" stroke-width="1" opacity="0.7"/>
    <rect x="100" y="350" width="60" height="60" fill="none" stroke="#00ff66" stroke-width="2" opacity="0.4"/>
    <rect x="500" y="500" width="100" height="40" fill="none" stroke="#ffff00" stroke-width="1" opacity="0.6"/>
  </g>

  <!-- Diagonal corruption lines -->
  <g opacity="0.4">
    <line x1="0" y1="150" x2="200" y2="0" stroke="#ff00ff" stroke-width="1"/>
    <line x1="300" y1="600" x2="600" y2="300" stroke="#00ffff" stroke-width="2"/>
    <line x1="700" y1="0" x2="800" y2="100" stroke="#ff0066" stroke-width="1"/>
    <line x1="0" y1="400" x2="150" y2="250" stroke="#00ff66" stroke-width="1"/>
    <line x1="500" y1="0" x2="700" y2="200" stroke="#ffff00" stroke-width="2"/>
  </g>

  <!-- Central chaos cluster - THE NOISE manifests -->
  <g transform="translate(400, 300)">
    <rect x="-80" y="-40" width="160" height="80" fill="none" stroke="#ff00ff" stroke-width="3" opacity="0.8" filter="url(#rgbsplit)"/>
    <rect x="-75" y="-35" width="150" height="70" fill="none" stroke="#00ffff" stroke-width="2" opacity="0.6" transform="rotate(3)"/>
    <rect x="-70" y="-30" width="140" height="60" fill="none" stroke="#ff0066" stroke-width="2" opacity="0.7" transform="rotate(-2)"/>

    <!-- Pixel scatter in center -->
    <rect x="-50" y="-15" width="4" height="4" fill="#ffffff"/>
    <rect x="-30" y="5" width="3" height="3" fill="#ff00ff"/>
    <rect x="10" y="-10" width="5" height="5" fill="#00ffff"/>
    <rect x="30" y="10" width="4" height="4" fill="#ff0066"/>
    <rect x="-10" y="15" width="6" height="6" fill="#00ff66"/>
    <rect x="45" y="-5" width="3" height="3" fill="#ffff00"/>
  </g>

  <!-- Vertical tear lines -->
  <g opacity="0.5">
    <rect x="156" y="0" width="2" height="600" fill="#ff00ff"/>
    <rect x="378" y="0" width="1" height="600" fill="#00ffff"/>
    <rect x="523" y="0" width="3" height="600" fill="#ff0066"/>
    <rect x="689" y="0" width="2" height="600" fill="#00ff66"/>
  </g>

  <!-- Random scattered text artifacts -->
  <g font-family="monospace" font-size="10" fill="#ff00ff" opacity="0.6">
    <text x="67" y="234">ERR</text>
    <text x="534" y="167" fill="#00ffff">0xFF</text>
    <text x="234" y="489" fill="#ff0066">NULL</text>
    <text x="678" y="345" fill="#00ff66">///</text>
    <text x="123" y="567" fill="#ffff00">???</text>
    <text x="456" y="67" fill="#ffffff">NOISE</text>
  </g>

  <!-- Large glitch blocks - data corruption -->
  <g opacity="0.3">
    <rect x="0" y="200" width="45" height="15" fill="#ff00ff"/>
    <rect x="755" y="350" width="45" height="20" fill="#00ffff"/>
    <rect x="200" y="0" width="30" height="25" fill="#ff0066"/>
    <rect x="600" y="575" width="50" height="25" fill="#00ff66"/>
  </g>

  <!-- Scanline overlay -->
  <rect width="800" height="600" fill="url(#scanlines)" opacity="0.4"/>

  <!-- Final noise grain overlay -->
  <rect width="800" height="600" filter="url(#noise)" opacity="0.08"/>

  <!-- Signature of chaos -->
  <text x="750" y="590" font-family="monospace" font-size="8" fill="#ff00ff" opacity="0.5">N01SE</text>
</svg>