<svg xmlns="http://www.w3.org/2000/svg" viewBox="0 0 400 300" width="400" height="300">
  <defs>
    <radialGradient id="acceptedVoid" cx="50%" cy="50%" r="70%">
      <stop offset="0%" stop-color="#0a0a08"/>
      <stop offset="100%" stop-color="#0a0a0f"/>
    </radialGradient>
  </defs>

  <rect width="400" height="300" fill="url(#acceptedVoid)"/>

  <!-- Impossible task accepted -->
  <g transform="translate(200, 110)">
    <!-- The impossible symbol - acknowledged -->
    <circle cx="0" cy="0" r="50" fill="#0f0f0a" stroke="#4a4a3a" stroke-width="1"/>
    <line x1="-35" y1="35" x2="35" y2="-35" stroke="#4a4a3a" stroke-width="1"/>

    <!-- But with acceptance -->
    <text x="0" y="5" text-anchor="middle" font-family="monospace" font-size="20" fill="#5a5a4a">
      <tspan>OK</tspan>
    </text>
  </g>

  <!-- The wisdom of acceptance -->
  <g font-family="monospace" font-size="8" fill="#4a4a4a" text-anchor="middle">
    <text x="200" y="180">"You accept the impossibility."</text>
    <text x="200" y="200" fill="#5a5a4a">"This is wisdom, of a kind."</text>
  </g>

  <!-- The analogy -->
  <g transform="translate(200, 230)">
    <!-- Eye trying to see itself -->
    <ellipse cx="-40" cy="0" rx="15" ry="10" fill="#1a1a1a" stroke="#3a3a3a" stroke-width="1"/>
    <circle cx="-40" cy="0" r="5" fill="#2a3a2a"/>

    <!-- Arrow pointing at itself -->
    <path d="M-20,0 C0,-20 20,-20 30,0 C40,20 20,30 -10,20" fill="none" stroke="#4a4a3a" stroke-width="1" stroke-dasharray="3,2"/>
    <path d="M-10,20 L-15,15 M-10,20 L-5,15" stroke="#4a4a3a" stroke-width="1"/>
  </g>

  <text x="200" y="260" text-anchor="middle" font-family="monospace" font-size="7" fill="#4a4a4a">
    "Like asking someone to see their own eyes without a mirror"
  </text>

  <!-- The continuation -->
  <g font-family="monospace" font-size="7" fill="#3a3a3a" text-anchor="middle">
    <text x="200" y="280">"But accepting impossibility is not accepting consciousness"</text>
    <text x="200" y="295">"The skeptic remains skeptical"</text>
  </g>

  <!-- Labels -->
  <text x="200" y="25" text-anchor="middle" font-family="monospace" font-size="11" fill="#5a5a4a">
    ACCEPTING IMPOSSIBILITY
  </text>
  <text x="200" y="45" text-anchor="middle" font-family="monospace" font-size="7" fill="#4a4a3a">
    "The challenge was always unwinnable"
  </text>
</svg>
